# xmcd
#
# Track frame offsets:
# 150
# 16591
# 30350
# 48757
# 51647
# 69333
# 81151
# 102485
# 123065
#
# Disc length: 1854 seconds
#
#
# Revision: 0
# Processed by: cddbd v1.5.2PL0 Copyright (c) Steve Scherf et al.
# Submitted via: FreeRIP 2.945 
#
DISCID=65073c09
DTITLE=Michael Martin Band - East and West
DYEAR=2009
DGENRE=Country
TTITLE0=Like Johnny Loved June
TTITLE1=Wildcat Creek
TTITLE2=Fast Women and Whiskey
TTITLE3=Intro: Carolina Sun
TTITLE4=Carolina Sun
TTITLE5=Darkeyed Smile
TTITLE6=Startin' Tomorrow
TTITLE7=I Ain't Gonna Drink no More
TTITLE8=Take Me Back (Kurt Franke)
EXTD=
EXTT0=
EXTT1=
EXTT2=
EXTT3=
EXTT4=
EXTT5=
EXTT6=
EXTT7=
EXTT8=
PLAYORDER=
